<svg t="1637304942348" class="icon" viewBox="0 0 1024 1024" version="1.1" xmlns="http://www.w3.org/2000/svg" p-id="7139" data-spm-anchor-id="a313x.7781069.0.i12" width="16" height="16"><path d="M515.413333 587.093333c-133.12 0-238.933333-51.2-238.933333-119.466666v-102.4c0-68.266667 105.813333-119.466667 238.933333-119.466667s238.933333 51.2 238.933334 119.466667v102.4c0 68.266667-105.813333 119.466667-238.933334 119.466666z m0-307.2c-119.466667 0-204.8 44.373333-204.8 85.333334v102.4c0 40.96 85.333333 85.333333 204.8 85.333333s204.8-44.373333 204.8-85.333333v-102.4c0-40.96-81.92-85.333333-204.8-85.333334z" fill="#cdcdcd" p-id="7140" data-spm-anchor-id="a313x.7781069.0.i15" class="selected"></path><path d="M378.88 467.626667h-34.133333v-78.506667c0-20.48 10.24-37.546667 27.306666-44.373333 17.066667-10.24 64.853333-30.72 143.36-30.72 92.16 0 150.186667 27.306667 167.253334 44.373333l-23.893334 23.893333c-6.826667-10.24-58.026667-34.133333-139.946666-34.133333-71.68 0-116.053333 20.48-126.293334 23.893333-6.826667 3.413333-10.24 10.24-10.24 13.653334v81.92zM928.426667 894.293333H102.4l30.72-157.013333c6.826667-27.306667 23.893333-51.2 51.2-61.44L273.066667 638.293333l6.826666 10.24c58.026667 68.266667 143.36 109.226667 235.52 109.226667S692.906667 716.8 750.933333 648.533333l6.826667-10.24 88.746667 37.546667c27.306667 10.24 44.373333 34.133333 51.2 61.44l30.72 157.013333z m-785.066667-34.133333H887.466667l-23.893334-116.053333c-3.413333-17.066667-13.653333-30.72-30.72-37.546667l-64.853333-27.306667c-64.853333 71.68-157.013333 112.64-252.586667 112.64S327.68 750.933333 262.826667 679.253333l-64.853334 27.306667c-17.066667 10.24-27.306667 23.893333-30.72 40.96l-23.893333 112.64z" fill="#cdcdcd" p-id="7141" data-spm-anchor-id="a313x.7781069.0.i11" class="selected"></path><path d="M515.413333 723.626667c-150.186667 0-273.066667-122.88-273.066666-273.066667v-102.4c0-150.186667 122.88-273.066667 273.066666-273.066667s273.066667 122.88 273.066667 273.066667v102.4c0 150.186667-122.88 273.066667-273.066667 273.066667z m0-614.4c-133.12 0-238.933333 105.813333-238.933333 238.933333v102.4c0 133.12 105.813333 238.933333 238.933333 238.933333s238.933333-105.813333 238.933334-238.933333v-102.4c0-129.706667-105.813333-238.933333-238.933334-238.933333z" fill="#cdcdcd" p-id="7142" data-spm-anchor-id="a313x.7781069.0.i13" class="selected"></path><path d="M781.653333 658.773333h-34.133333c0-13.653333-6.826667-23.893333-13.653333-27.306666-6.826667-3.413333-10.24 0-17.066667 3.413333l-23.893333-23.893333c13.653333-13.653333 34.133333-17.066667 54.613333-10.24 20.48 10.24 34.133333 30.72 34.133333 58.026666zM286.72 658.773333h-34.133333c0-27.306667 13.653333-51.2 34.133333-58.026666 17.066667-6.826667 37.546667-3.413333 54.613333 10.24l-23.893333 23.893333c-3.413333-3.413333-10.24-6.826667-17.066667-3.413333-10.24 3.413333-13.653333 13.653333-13.653333 27.306666z" fill="#cdcdcd" p-id="7143" data-spm-anchor-id="a313x.7781069.0.i16" class="selected"></path><path d="M481.28 518.826667a51.2 34.133333 0 1 0 102.4 0 51.2 34.133333 0 1 0-102.4 0Z" fill="#cdcdcd" p-id="7144" data-spm-anchor-id="a313x.7781069.0.i17" class="selected"></path><path d="M566.613333 535.893333v-34.133333c37.546667 0 146.773333-51.2 153.6-68.266667h34.133334c0 47.786667-150.186667 102.4-187.733334 102.4z" fill="#cdcdcd" p-id="7145" data-spm-anchor-id="a313x.7781069.0.i14" class="selected"></path></svg>